<mxfile host="app.diagrams.net" agent="Mozilla/5.0 (Windows NT 10.0; Win64; x64) AppleWebKit/537.36 (KHTML, like Gecko) Chrome/140.0.0.0 Safari/537.36" version="28.2.5">
  <diagram name="Page-1" id="rL6wYzq297fijbXMsxHL">
    <mxGraphModel dx="820" dy="1619" grid="1" gridSize="10" guides="1" tooltips="1" connect="1" arrows="1" fold="1" page="1" pageScale="1" pageWidth="850" pageHeight="1100" math="0" shadow="0">
      <root>
        <mxCell id="0" />
        <mxCell id="1" parent="0" />
        <mxCell id="6nlLKT8NChmwJE9VW_4I-29" style="edgeStyle=orthogonalEdgeStyle;rounded=0;orthogonalLoop=1;jettySize=auto;html=1;" edge="1" parent="1" source="6nlLKT8NChmwJE9VW_4I-1" target="6nlLKT8NChmwJE9VW_4I-15">
          <mxGeometry relative="1" as="geometry" />
        </mxCell>
        <mxCell id="6nlLKT8NChmwJE9VW_4I-30" value="Displays Possible Moves" style="edgeLabel;html=1;align=center;verticalAlign=middle;resizable=0;points=[];" vertex="1" connectable="0" parent="6nlLKT8NChmwJE9VW_4I-29">
          <mxGeometry x="-0.1235" relative="1" as="geometry">
            <mxPoint as="offset" />
          </mxGeometry>
        </mxCell>
        <mxCell id="6nlLKT8NChmwJE9VW_4I-1" value="Board Representation" style="rounded=1;whiteSpace=wrap;html=1;" vertex="1" parent="1">
          <mxGeometry x="40" y="-30" width="160" height="80" as="geometry" />
        </mxCell>
        <mxCell id="6nlLKT8NChmwJE9VW_4I-2" value="" style="endArrow=none;dashed=1;html=1;dashPattern=1 3;strokeWidth=2;rounded=0;" edge="1" parent="1">
          <mxGeometry width="50" height="50" relative="1" as="geometry">
            <mxPoint x="50" y="120" as="sourcePoint" />
            <mxPoint x="620" y="120" as="targetPoint" />
          </mxGeometry>
        </mxCell>
        <mxCell id="6nlLKT8NChmwJE9VW_4I-21" value="Communication Layer" style="edgeLabel;html=1;align=center;verticalAlign=middle;resizable=0;points=[];" vertex="1" connectable="0" parent="6nlLKT8NChmwJE9VW_4I-2">
          <mxGeometry x="0.4069" y="2" relative="1" as="geometry">
            <mxPoint as="offset" />
          </mxGeometry>
        </mxCell>
        <mxCell id="6nlLKT8NChmwJE9VW_4I-5" value="Game State Database" style="rounded=1;whiteSpace=wrap;html=1;" vertex="1" parent="1">
          <mxGeometry x="40" y="150" width="120" height="60" as="geometry" />
        </mxCell>
        <mxCell id="6nlLKT8NChmwJE9VW_4I-11" style="edgeStyle=orthogonalEdgeStyle;rounded=0;orthogonalLoop=1;jettySize=auto;html=1;exitX=0.5;exitY=1;exitDx=0;exitDy=0;entryX=0.5;entryY=1;entryDx=0;entryDy=0;" edge="1" parent="1" source="6nlLKT8NChmwJE9VW_4I-7" target="6nlLKT8NChmwJE9VW_4I-8">
          <mxGeometry relative="1" as="geometry" />
        </mxCell>
        <mxCell id="6nlLKT8NChmwJE9VW_4I-12" value="Optimal Move Inference" style="edgeLabel;html=1;align=center;verticalAlign=middle;resizable=0;points=[];" vertex="1" connectable="0" parent="6nlLKT8NChmwJE9VW_4I-11">
          <mxGeometry x="-0.04" y="3" relative="1" as="geometry">
            <mxPoint as="offset" />
          </mxGeometry>
        </mxCell>
        <mxCell id="6nlLKT8NChmwJE9VW_4I-7" value="AI Model" style="rounded=1;whiteSpace=wrap;html=1;" vertex="1" parent="1">
          <mxGeometry x="510" y="150" width="120" height="60" as="geometry" />
        </mxCell>
        <mxCell id="6nlLKT8NChmwJE9VW_4I-13" style="edgeStyle=orthogonalEdgeStyle;rounded=0;orthogonalLoop=1;jettySize=auto;html=1;entryX=1;entryY=0.5;entryDx=0;entryDy=0;" edge="1" parent="1" source="6nlLKT8NChmwJE9VW_4I-8" target="6nlLKT8NChmwJE9VW_4I-5">
          <mxGeometry relative="1" as="geometry" />
        </mxCell>
        <mxCell id="6nlLKT8NChmwJE9VW_4I-14" value="Records Action" style="edgeLabel;html=1;align=center;verticalAlign=middle;resizable=0;points=[];" vertex="1" connectable="0" parent="6nlLKT8NChmwJE9VW_4I-13">
          <mxGeometry x="0.1012" y="-2" relative="1" as="geometry">
            <mxPoint as="offset" />
          </mxGeometry>
        </mxCell>
        <mxCell id="6nlLKT8NChmwJE9VW_4I-8" value="Game State Digital Twin" style="rounded=1;whiteSpace=wrap;html=1;" vertex="1" parent="1">
          <mxGeometry x="265" y="150" width="120" height="60" as="geometry" />
        </mxCell>
        <mxCell id="6nlLKT8NChmwJE9VW_4I-9" value="" style="endArrow=classic;html=1;rounded=0;entryX=0;entryY=0.5;entryDx=0;entryDy=0;exitX=1;exitY=0.5;exitDx=0;exitDy=0;" edge="1" parent="1" source="6nlLKT8NChmwJE9VW_4I-8" target="6nlLKT8NChmwJE9VW_4I-7">
          <mxGeometry width="50" height="50" relative="1" as="geometry">
            <mxPoint x="320" y="200" as="sourcePoint" />
            <mxPoint x="370" y="150" as="targetPoint" />
          </mxGeometry>
        </mxCell>
        <mxCell id="6nlLKT8NChmwJE9VW_4I-10" value="Transfers Action" style="edgeLabel;html=1;align=center;verticalAlign=middle;resizable=0;points=[];" vertex="1" connectable="0" parent="6nlLKT8NChmwJE9VW_4I-9">
          <mxGeometry x="-0.1648" y="3" relative="1" as="geometry">
            <mxPoint as="offset" />
          </mxGeometry>
        </mxCell>
        <mxCell id="6nlLKT8NChmwJE9VW_4I-31" style="edgeStyle=orthogonalEdgeStyle;rounded=0;orthogonalLoop=1;jettySize=auto;html=1;exitX=0;exitY=0.75;exitDx=0;exitDy=0;entryX=1;entryY=0.75;entryDx=0;entryDy=0;" edge="1" parent="1" source="6nlLKT8NChmwJE9VW_4I-15" target="6nlLKT8NChmwJE9VW_4I-1">
          <mxGeometry relative="1" as="geometry" />
        </mxCell>
        <mxCell id="6nlLKT8NChmwJE9VW_4I-32" value="Input Player Actions" style="edgeLabel;html=1;align=center;verticalAlign=middle;resizable=0;points=[];" vertex="1" connectable="0" parent="6nlLKT8NChmwJE9VW_4I-31">
          <mxGeometry x="0.1322" y="-3" relative="1" as="geometry">
            <mxPoint as="offset" />
          </mxGeometry>
        </mxCell>
        <mxCell id="6nlLKT8NChmwJE9VW_4I-15" value="User Interface" style="rounded=1;whiteSpace=wrap;html=1;" vertex="1" parent="1">
          <mxGeometry x="430" y="-30" width="155" height="80" as="geometry" />
        </mxCell>
        <mxCell id="6nlLKT8NChmwJE9VW_4I-22" value="" style="endArrow=none;dashed=1;html=1;dashPattern=1 3;strokeWidth=2;rounded=0;" edge="1" parent="1">
          <mxGeometry width="50" height="50" relative="1" as="geometry">
            <mxPoint x="50" y="-50" as="sourcePoint" />
            <mxPoint x="630" y="-50" as="targetPoint" />
          </mxGeometry>
        </mxCell>
        <mxCell id="6nlLKT8NChmwJE9VW_4I-23" value="Physical World" style="edgeLabel;html=1;align=center;verticalAlign=middle;resizable=0;points=[];" vertex="1" connectable="0" parent="6nlLKT8NChmwJE9VW_4I-22">
          <mxGeometry x="0.4069" y="2" relative="1" as="geometry">
            <mxPoint as="offset" />
          </mxGeometry>
        </mxCell>
        <mxCell id="6nlLKT8NChmwJE9VW_4I-27" value="" style="endArrow=classic;startArrow=classic;html=1;rounded=0;exitX=0.5;exitY=0;exitDx=0;exitDy=0;entryX=0.444;entryY=1.012;entryDx=0;entryDy=0;entryPerimeter=0;" edge="1" parent="1" source="6nlLKT8NChmwJE9VW_4I-8" target="6nlLKT8NChmwJE9VW_4I-1">
          <mxGeometry width="50" height="50" relative="1" as="geometry">
            <mxPoint x="360" y="100" as="sourcePoint" />
            <mxPoint x="190" y="70" as="targetPoint" />
          </mxGeometry>
        </mxCell>
        <mxCell id="6nlLKT8NChmwJE9VW_4I-28" value="Updates Game State" style="edgeLabel;html=1;align=center;verticalAlign=middle;resizable=0;points=[];" vertex="1" connectable="0" parent="6nlLKT8NChmwJE9VW_4I-27">
          <mxGeometry x="0.1197" y="3" relative="1" as="geometry">
            <mxPoint as="offset" />
          </mxGeometry>
        </mxCell>
        <mxCell id="6nlLKT8NChmwJE9VW_4I-34" style="edgeStyle=orthogonalEdgeStyle;rounded=0;orthogonalLoop=1;jettySize=auto;html=1;" edge="1" parent="1" source="6nlLKT8NChmwJE9VW_4I-33" target="6nlLKT8NChmwJE9VW_4I-1">
          <mxGeometry relative="1" as="geometry">
            <Array as="points">
              <mxPoint x="120" y="-70" />
              <mxPoint x="120" y="-70" />
            </Array>
          </mxGeometry>
        </mxCell>
        <mxCell id="6nlLKT8NChmwJE9VW_4I-35" value="Board Landmark Transfer" style="edgeLabel;html=1;align=center;verticalAlign=middle;resizable=0;points=[];" vertex="1" connectable="0" parent="6nlLKT8NChmwJE9VW_4I-34">
          <mxGeometry x="-0.336" relative="1" as="geometry">
            <mxPoint as="offset" />
          </mxGeometry>
        </mxCell>
        <mxCell id="6nlLKT8NChmwJE9VW_4I-33" value="Camera Feed" style="rounded=1;whiteSpace=wrap;html=1;" vertex="1" parent="1">
          <mxGeometry x="40" y="-150" width="180" height="70" as="geometry" />
        </mxCell>
      </root>
    </mxGraphModel>
  </diagram>
</mxfile>
